<svg width="428" height="34" viewBox="0 0 428 34" fill="none" xmlns="http://www.w3.org/2000/svg">
<path d="M31.9697 26.194H34.0447V33H22.7152L16.4902 20.135L14.5812 21.712V26.194H16.5732V33H0.886152V26.194H2.96115V7.519H0.886152V0.712998H16.5732V7.519H14.5812V12.997L21.0137 7.519H18.3992V0.712998H33.8372V7.519H31.7622L24.8317 13.246L31.9697 26.194Z" fill="#4DFF00"/>
<path d="M47.4158 33.581C43.4871 33.581 40.4161 32.5573 38.2028 30.51C35.9894 28.435 34.8828 25.4193 34.8828 21.463C34.8828 17.5067 35.9894 14.5048 38.2028 12.4575C40.4161 10.3825 43.4871 9.345 47.4158 9.345C51.3998 9.345 54.4846 10.3963 56.6703 12.499C58.8559 14.574 59.9488 17.562 59.9488 21.463C59.9488 25.4193 58.8421 28.435 56.6288 30.51C54.4154 32.5573 51.3444 33.581 47.4158 33.581ZM47.4158 26.194C48.2181 26.194 48.8129 25.9865 49.2003 25.5715C49.6153 25.1288 49.8228 24.451 49.8228 23.538V19.388C49.8228 18.475 49.6153 17.811 49.2003 17.396C48.8129 16.9533 48.2181 16.732 47.4158 16.732C46.6134 16.732 46.0048 16.9533 45.5898 17.396C45.2024 17.811 45.0088 18.475 45.0088 19.388V23.538C45.0088 24.451 45.2024 25.1288 45.5898 25.5715C46.0048 25.9865 46.6134 26.194 47.4158 26.194ZM73.6369 33.581C69.7083 33.581 66.6373 32.5573 64.4239 30.51C62.2106 28.435 61.1039 25.4193 61.1039 21.463C61.1039 17.5067 62.2106 14.5048 64.4239 12.4575C66.6373 10.3825 69.7083 9.345 73.6369 9.345C77.6209 9.345 80.7058 10.3963 82.8915 12.499C85.0771 14.574 86.17 17.562 86.17 21.463C86.17 25.4193 85.0633 28.435 82.85 30.51C80.6366 32.5573 77.5656 33.581 73.6369 33.581ZM73.6369 26.194C74.4393 26.194 75.0341 25.9865 75.4215 25.5715C75.8364 25.1288 76.0439 24.451 76.0439 23.538V19.388C76.0439 18.475 75.8364 17.811 75.4215 17.396C75.0341 16.9533 74.4393 16.732 73.6369 16.732C72.8346 16.732 72.2259 16.9533 71.8109 17.396C71.4236 17.811 71.2299 18.475 71.2299 19.388V23.538C71.2299 24.451 71.4236 25.1288 71.8109 25.5715C72.2259 25.9865 72.8346 26.194 73.6369 26.194ZM95.6666 33.581C92.8446 33.581 90.7143 32.5297 89.2756 30.427C87.8646 28.3243 87.1591 25.3363 87.1591 21.463C87.1591 17.5897 87.8646 14.6017 89.2756 12.499C90.7143 10.3963 92.8446 9.345 95.6666 9.345C97.0776 9.345 98.3226 9.69083 99.4016 10.3825C100.508 11.0742 101.407 11.8627 102.099 12.748V7.519H99.6506V0.712998H111.644V26.194H113.47V33H102.099V30.178C101.407 31.0633 100.508 31.8518 99.4016 32.5435C98.3226 33.2352 97.0776 33.581 95.6666 33.581ZM99.6921 26.194C100.494 26.194 101.089 25.9865 101.477 25.5715C101.892 25.1288 102.099 24.451 102.099 23.538V19.388C102.099 18.475 101.892 17.811 101.477 17.396C101.089 16.9533 100.494 16.732 99.6921 16.732C98.8898 16.732 98.2811 16.9533 97.8661 17.396C97.4788 17.811 97.2851 18.475 97.2851 19.388V23.538C97.2851 24.451 97.4788 25.1288 97.8661 25.5715C98.2811 25.9865 98.8898 26.194 99.6921 26.194ZM127.174 33.581C123.245 33.581 120.174 32.5573 117.961 30.51C115.747 28.435 114.641 25.4193 114.641 21.463C114.641 17.5067 115.747 14.5048 117.961 12.4575C120.174 10.3825 123.245 9.345 127.174 9.345C131.075 9.345 133.883 10.3687 135.598 12.416C137.341 14.4357 138.213 16.9533 138.213 19.969V22.957H124.767V23.206C124.767 24.2297 125.071 24.9905 125.68 25.4885C126.288 25.9588 127.298 26.194 128.709 26.194C130.397 26.194 132.001 26.0695 133.523 25.8205C135.045 25.5715 136.373 25.2533 137.507 24.866V31.506C136.539 32.0317 135.114 32.5158 133.233 32.9585C131.379 33.3735 129.359 33.581 127.174 33.581ZM129.581 18.392V17.894C129.581 16.9533 129.373 16.2755 128.958 15.8605C128.571 15.4455 127.976 15.238 127.174 15.238C126.371 15.238 125.763 15.4593 125.348 15.902C124.96 16.317 124.767 16.981 124.767 17.894V18.392H129.581ZM181.764 33.581C177.835 33.581 174.764 32.5573 172.551 30.51C170.338 28.435 169.231 25.4193 169.231 21.463C169.231 17.5067 170.338 14.5048 172.551 12.4575C174.764 10.3825 177.835 9.345 181.764 9.345C185.748 9.345 188.833 10.3963 191.018 12.499C193.204 14.574 194.297 17.562 194.297 21.463C194.297 25.4193 193.19 28.435 190.977 30.51C188.764 32.5573 185.693 33.581 181.764 33.581ZM181.764 26.194C182.566 26.194 183.161 25.9865 183.548 25.5715C183.963 25.1288 184.171 24.451 184.171 23.538V19.388C184.171 18.475 183.963 17.811 183.548 17.396C183.161 16.9533 182.566 16.732 181.764 16.732C180.962 16.732 180.353 16.9533 179.938 17.396C179.551 17.811 179.357 18.475 179.357 19.388V23.538C179.357 24.451 179.551 25.1288 179.938 25.5715C180.353 25.9865 180.962 26.194 181.764 26.194ZM203.794 33.581C200.972 33.581 198.841 32.5297 197.403 30.427C195.992 28.3243 195.286 25.3363 195.286 21.463C195.286 17.5897 195.992 14.6017 197.403 12.499C198.841 10.3963 200.972 9.345 203.794 9.345C205.205 9.345 206.45 9.69083 207.529 10.3825C208.635 11.0742 209.534 11.8627 210.226 12.748V7.519H207.778V0.712998H219.771V26.194H221.597V33H210.226V30.178C209.534 31.0633 208.635 31.8518 207.529 32.5435C206.45 33.2352 205.205 33.581 203.794 33.581ZM207.819 26.194C208.621 26.194 209.216 25.9865 209.604 25.5715C210.019 25.1288 210.226 24.451 210.226 23.538V19.388C210.226 18.475 210.019 17.811 209.604 17.396C209.216 16.9533 208.621 16.732 207.819 16.732C207.017 16.732 206.408 16.9533 205.993 17.396C205.606 17.811 205.412 18.475 205.412 19.388V23.538C205.412 24.451 205.606 25.1288 205.993 25.5715C206.408 25.9865 207.017 26.194 207.819 26.194ZM235.301 33.581C231.372 33.581 228.301 32.5573 226.088 30.51C223.874 28.435 222.768 25.4193 222.768 21.463C222.768 17.5067 223.874 14.5048 226.088 12.4575C228.301 10.3825 231.372 9.345 235.301 9.345C239.202 9.345 242.01 10.3687 243.725 12.416C245.468 14.4357 246.34 16.9533 246.34 19.969V22.957H232.894V23.206C232.894 24.2297 233.198 24.9905 233.807 25.4885C234.415 25.9588 235.425 26.194 236.836 26.194C238.524 26.194 240.128 26.0695 241.65 25.8205C243.172 25.5715 244.5 25.2533 245.634 24.866V31.506C244.666 32.0317 243.241 32.5158 241.36 32.9585C239.506 33.3735 237.486 33.581 235.301 33.581ZM237.708 18.392V17.894C237.708 16.9533 237.5 16.2755 237.085 15.8605C236.698 15.4455 236.103 15.238 235.301 15.238C234.498 15.238 233.89 15.4593 233.475 15.902C233.087 16.317 232.894 16.981 232.894 17.894V18.392H237.708ZM276.201 33.581C270.972 33.581 266.933 32.253 264.083 29.597C261.261 26.941 259.85 22.6942 259.85 16.8565C259.85 5.70683 265.273 0.131998 276.118 0.131998C278.746 0.131998 281.181 0.450164 283.422 1.0865C285.691 1.72283 287.378 2.42833 288.485 3.203V13.578H278.525V10.59C278.525 9.53867 278.29 8.764 277.82 8.266C277.349 7.768 276.644 7.519 275.703 7.519C274.762 7.519 274.057 7.768 273.587 8.266C273.116 8.764 272.881 9.53867 272.881 10.59V23.123C272.881 24.1743 273.116 24.949 273.587 25.447C274.057 25.945 274.762 26.194 275.703 26.194C276.644 26.194 277.349 25.945 277.82 25.447C278.29 24.949 278.525 24.1743 278.525 23.123V19.7615H288.485V30.51C287.351 31.2847 285.663 31.9902 283.422 32.6265C281.209 33.2628 278.802 33.581 276.201 33.581ZM302.333 33.581C298.404 33.581 295.333 32.5573 293.12 30.51C290.906 28.435 289.8 25.4193 289.8 21.463C289.8 17.5067 290.906 14.5048 293.12 12.4575C295.333 10.3825 298.404 9.345 302.333 9.345C306.317 9.345 309.402 10.3963 311.587 12.499C313.773 14.574 314.866 17.562 314.866 21.463C314.866 25.4193 313.759 28.435 311.546 30.51C309.332 32.5573 306.261 33.581 302.333 33.581ZM302.333 26.194C303.135 26.194 303.73 25.9865 304.117 25.5715C304.532 25.1288 304.74 24.451 304.74 23.538V19.388C304.74 18.475 304.532 17.811 304.117 17.396C303.73 16.9533 303.135 16.732 302.333 16.732C301.53 16.732 300.922 16.9533 300.507 17.396C300.119 17.811 299.926 18.475 299.926 19.388V23.538C299.926 24.451 300.119 25.1288 300.507 25.5715C300.922 25.9865 301.53 26.194 302.333 26.194ZM343.743 26.194V33H330.629V26.194H332.372V19.388C332.372 18.475 332.178 17.811 331.791 17.396C331.404 16.9533 330.823 16.732 330.048 16.732C328.388 16.732 327.558 17.6173 327.558 19.388V26.194H329.301V33H316.187V26.194H318.013V16.732H316.187V9.926H327.558V13.163C329.55 10.6177 332.04 9.345 335.028 9.345C337.324 9.345 339.04 10.0643 340.174 11.503C341.336 12.9417 341.917 14.9198 341.917 17.4375V26.194H343.743ZM355.333 33.581C352.401 33.581 350.187 32.8755 348.693 31.4645C347.227 30.0258 346.494 27.6188 346.494 24.2435V16.732H344.668V9.926C345.719 9.926 346.508 9.66316 347.033 9.1375C347.559 8.58417 347.822 7.83717 347.822 6.8965V5.029H356.62V9.926H362.222V16.732H356.62V23.538C356.62 24.451 356.814 25.1288 357.201 25.5715C357.616 25.9865 358.225 26.194 359.027 26.194C360.078 26.194 361.226 26.0695 362.471 25.8205V32.336C361.697 32.6403 360.645 32.917 359.317 33.166C358.017 33.4427 356.689 33.581 355.333 33.581ZM376.174 33.581C372.245 33.581 369.174 32.5573 366.961 30.51C364.747 28.435 363.641 25.4193 363.641 21.463C363.641 17.5067 364.747 14.5048 366.961 12.4575C369.174 10.3825 372.245 9.345 376.174 9.345C380.075 9.345 382.883 10.3687 384.598 12.416C386.341 14.4357 387.213 16.9533 387.213 19.969V22.957H373.767V23.206C373.767 24.2297 374.071 24.9905 374.68 25.4885C375.288 25.9588 376.298 26.194 377.709 26.194C379.397 26.194 381.001 26.0695 382.523 25.8205C384.045 25.5715 385.373 25.2533 386.507 24.866V31.506C385.539 32.0317 384.114 32.5158 382.233 32.9585C380.379 33.3735 378.359 33.581 376.174 33.581ZM378.581 18.392V17.894C378.581 16.9533 378.373 16.2755 377.958 15.8605C377.571 15.4455 376.976 15.238 376.174 15.238C375.371 15.238 374.763 15.4593 374.348 15.902C373.96 16.317 373.767 16.981 373.767 17.894V18.392H378.581ZM398.532 33.581C395.046 33.581 391.684 33.0277 388.447 31.921V25.779H395.17V26.194C395.17 27.522 396.014 28.186 397.702 28.186C399.196 28.186 399.943 27.6742 399.943 26.6505C399.943 26.0972 399.721 25.6822 399.279 25.4055C398.864 25.1288 398.117 24.8937 397.038 24.7L394.963 24.3265C390.619 23.5518 388.447 21.0895 388.447 16.9395C388.447 14.5325 389.36 12.665 391.186 11.337C393.012 10.009 395.475 9.345 398.573 9.345C402.032 9.345 404.95 9.926 407.33 11.088V16.8565H401.022V16.4415C401.022 15.8882 400.828 15.4732 400.441 15.1965C400.081 14.8922 399.542 14.74 398.822 14.74C397.439 14.74 396.747 15.1827 396.747 16.068C396.747 16.5383 396.941 16.898 397.328 17.147C397.716 17.396 398.421 17.6312 399.445 17.8525L401.81 18.309C404.273 18.7793 406.029 19.6508 407.081 20.9235C408.132 22.1962 408.658 23.8285 408.658 25.8205C408.658 28.3382 407.772 30.261 406.002 31.589C404.259 32.917 401.769 33.581 398.532 33.581ZM420.218 33.581C417.285 33.581 415.072 32.8755 413.578 31.4645C412.111 30.0258 411.378 27.6188 411.378 24.2435V16.732H409.552V9.926C410.604 9.926 411.392 9.66316 411.918 9.1375C412.443 8.58417 412.706 7.83717 412.706 6.8965V5.029H421.504V9.926H427.107V16.732H421.504V23.538C421.504 24.451 421.698 25.1288 422.085 25.5715C422.5 25.9865 423.109 26.194 423.911 26.194C424.963 26.194 426.111 26.0695 427.356 25.8205V32.336C426.581 32.6403 425.53 32.917 424.202 33.166C422.901 33.4427 421.573 33.581 420.218 33.581Z" fill="white"/>
<path d="M155.632 33.581C150.403 33.581 146.364 32.253 143.514 29.597C140.692 26.941 139.281 22.6942 139.281 16.8565C139.281 5.70683 144.704 0.131998 155.549 0.131998C158.178 0.131998 160.612 0.450164 162.853 1.0865C165.122 1.72283 166.81 2.42833 167.916 3.203V13.578H157.956V10.59C157.956 9.53867 157.721 8.764 157.251 8.266C156.78 7.768 156.075 7.519 155.134 7.519C154.194 7.519 153.488 7.768 153.018 8.266C152.547 8.764 152.312 9.53867 152.312 10.59V23.123C152.312 24.1743 152.547 24.949 153.018 25.447C153.488 25.945 154.194 26.194 155.134 26.194C156.075 26.194 156.78 25.945 157.251 25.447C157.721 24.949 157.956 24.1743 157.956 23.123V19.7615H167.916V30.51C166.782 31.2847 165.094 31.9902 162.853 32.6265C160.64 33.2628 158.233 33.581 155.632 33.581Z" fill="#00FF04"/>
</svg>
